<svg width="10" height="10" viewBox="0 0 10 10" fill="" xmlns="http://www.w3.org/2000/svg">
<path fill-rule="evenodd" clip-rule="evenodd" d="M8.1606 9.70759C8.55113 10.0981 9.18429 10.0981 9.57482 9.70759L9.70759 9.57482C10.0981 9.18429 10.0981 8.55113 9.70759 8.1606L7.25451 5.70752C6.86399 5.317 6.86399 4.68383 7.25451 4.29331L9.70771 1.84011C10.0982 1.44959 10.0982 0.816421 9.70771 0.425897L9.57494 0.293124C9.18441 -0.0974007 8.55125 -0.0974001 8.16072 0.293124L5.70752 2.74632C5.317 3.13685 4.68384 3.13685 4.29331 2.74632L1.83988 0.292893C1.44936 -0.097631 0.816192 -0.0976311 0.425667 0.292893L0.292894 0.425667C-0.0976307 0.816191 -0.0976315 1.44936 0.292893 1.83988L2.74632 4.29331C3.13685 4.68383 3.13685 5.317 2.74632 5.70752L0.293013 8.16083C-0.0975115 8.55136 -0.0975116 9.18452 0.293013 9.57505L0.425786 9.70782C0.81631 10.0983 1.44948 10.0983 1.84 9.70782L4.29331 7.25451C4.68383 6.86399 5.317 6.86399 5.70752 7.25451L8.1606 9.70759Z" fill="#F5F5F5"/>
</svg>
