<svg width="24" height="24" viewBox="0 0 24 24" fill="" xmlns="http://www.w3.org/2000/svg">
<path d="M18.3391 4H5.66143C5.33959 4.00027 5.02474 4.09943 4.7551 4.28544C4.48546 4.47145 4.27261 4.73632 4.1424 5.0479C4.01218 5.35948 3.97019 5.70438 4.02153 6.04073C4.07287 6.37708 4.21532 6.69043 4.4316 6.94274L9.92583 13.3396V19.3725C9.92588 19.4905 9.95732 19.606 10.0165 19.7059C10.0758 19.8058 10.1604 19.8859 10.2607 19.9372C10.3409 19.9791 10.4291 20.0006 10.5185 20C10.6532 19.9999 10.7839 19.9512 10.889 19.8619L12.0002 18.9208L13.8524 17.3521C13.9217 17.2934 13.9777 17.2189 14.0161 17.1342C14.0546 17.0495 14.0746 16.9567 14.0747 16.8627V13.3396L19.5689 6.94274C19.7852 6.69043 19.9276 6.37708 19.979 6.04073C20.0303 5.70438 19.9883 5.35948 19.8581 5.0479C19.7279 4.73632 19.515 4.47145 19.2454 4.28544C18.9757 4.09943 18.6609 4.00027 18.3391 4Z" />
</svg>
