<svg width="24" height="24" viewBox="0 0 24 24"  xmlns="http://www.w3.org/2000/svg">
<path fill-rule="evenodd" clip-rule="evenodd" d="M6 6C5.44772 6 5 6.44772 5 7V11C5 11.5523 5.44772 12 6 12H10C10.5523 12 11 11.5523 11 11V7C11 6.44772 10.5523 6 10 6H6ZM6 14C5.44772 14 5 14.4477 5 15V19C5 19.5523 5.44772 20 6 20H10C10.5523 20 11 19.5523 11 19V15C11 14.4477 10.5523 14 10 14H6ZM13 7C13 6.44772 13.4477 6 14 6H18C18.5523 6 19 6.44772 19 7V11C19 11.5523 18.5523 12 18 12H14C13.4477 12 13 11.5523 13 11V7ZM14 14C13.4477 14 13 14.4477 13 15V19C13 19.5523 13.4477 20 14 20H18C18.5523 20 19 19.5523 19 19V15C19 14.4477 18.5523 14 18 14H14Z"/>
</svg>
