<svg width="24" height="24" viewBox="0 0 24 24"  xmlns="http://www.w3.org/2000/svg">
<path fill-rule="evenodd" clip-rule="evenodd" d="M20 6C20 6.55228 19.5523 7 19 7L5 7C4.44772 7 4 6.55228 4 6V4.53333C4 4.23878 4.23878 4 4.53333 4C4.82788 4 5.06667 4.23878 5.06667 4.53333L5.06667 5.5C5.06667 5.77614 5.29052 6 5.56667 6L18.4333 6C18.7095 6 18.9333 5.77614 18.9333 5.5V4.53333C18.9333 4.23878 19.1721 4 19.4667 4C19.7612 4 20 4.23878 20 4.53333V6ZM4 10C4 9.44772 4.44772 9 5 9H19C19.5523 9 20 9.44772 20 10V14C20 14.5523 19.5523 15 19 15H5C4.44772 15 4 14.5523 4 14V10ZM5 17C4.44772 17 4 17.4477 4 18V19.4667C4 19.7612 4.23878 20 4.53333 20C4.82789 20 5.06667 19.7612 5.06667 19.4667V18.5C5.06667 18.2239 5.29052 18 5.56667 18H18.4333C18.7095 18 18.9333 18.2239 18.9333 18.5V19.4667C18.9333 19.7612 19.1721 20 19.4667 20C19.7612 20 20 19.7612 20 19.4667V18C20 17.4477 19.5523 17 19 17H5Z" />
</svg>
