<svg width="16" height="16" viewBox="0 0 16 16" xmlns="http://www.w3.org/2000/svg">
<g clip-path="url(#clip0_862_10458)">
<path d="M7.37778 4.97778C7.46667 4.97778 7.46667 4.97778 7.37778 4.97778C7.46667 4.62222 7.55556 4.44444 7.55556 4.17778V4C7.64444 3.55556 7.64444 3.2 7.55556 3.11111C7.55556 3.11111 7.55556 3.11111 7.55556 3.02222L7.46667 2.93333C7.46667 2.93333 7.46667 3.02222 7.37778 3.02222C7.2 3.55556 7.2 4.17778 7.37778 4.97778ZM4.71111 11.1111C4.53333 11.2 4.35556 11.2889 4.26667 11.3778C3.64444 11.9111 3.2 12.5333 3.11111 12.8C3.64444 12.7111 4.17778 12.1778 4.71111 11.1111C4.8 11.1111 4.8 11.1111 4.71111 11.1111ZM12.8889 9.77778C12.8 9.68889 12.4444 9.42222 11.2 9.42222C11.1111 9.42222 11.1111 9.42222 11.0222 9.42222C11.0222 9.42222 11.0222 9.42222 11.0222 9.51111C11.6444 9.77778 12.2667 9.95556 12.7111 9.95556C12.8 9.95556 12.8 9.95556 12.8889 9.95556H12.9778C12.9778 9.95556 12.9778 9.95555 12.9778 9.86667C12.9778 9.86667 12.8889 9.86667 12.8889 9.77778ZM14.2222 0H1.77778C0.8 0 0 0.8 0 1.77778V14.2222C0 15.2 0.8 16 1.77778 16H14.2222C15.2 16 16 15.2 16 14.2222V1.77778C16 0.8 15.2 0 14.2222 0ZM13.2444 10.4889C13.0666 10.5778 12.8 10.6667 12.4444 10.6667C11.7333 10.6667 10.6667 10.4889 9.77778 10.0444C8.26667 10.2222 7.11111 10.4 6.22222 10.7555C6.13333 10.7555 6.13333 10.7555 6.04444 10.8444C4.97778 12.7111 4.08889 13.6 3.37778 13.6C3.2 13.6 3.11111 13.6 3.02222 13.5111L2.57778 13.2444V13.1556C2.48889 12.9777 2.48889 12.8889 2.48889 12.7111C2.57778 12.2667 3.11111 11.4667 4.17778 10.8444C4.35556 10.7555 4.62222 10.5778 4.97778 10.4C5.24444 9.95552 5.51111 9.42219 5.86667 8.8C6.31111 7.91111 6.57778 7.02222 6.84444 6.22222C6.48889 5.15556 6.31111 4.53333 6.66667 3.28889C6.75556 2.93333 7.02222 2.57778 7.37778 2.57778H7.55556C7.73333 2.57778 7.91111 2.66667 8.08889 2.75556C8.71115 3.37778 8.44444 4.8 8.08889 5.95556C8.08889 6.04444 8.08889 6.04444 8.08889 6.04444C8.44444 7.02222 8.97778 7.82222 9.51111 8.35556C9.77778 8.53333 9.95555 8.71111 10.3111 8.88889C10.7556 8.88889 11.1111 8.8 11.4667 8.8C12.5333 8.8 13.2444 8.97778 13.5111 9.42222C13.6 9.60003 13.6 9.77778 13.6 9.95556C13.5111 10.0444 13.4222 10.3111 13.2444 10.4889ZM7.46667 7.02222C7.28889 7.64444 6.93333 8.35556 6.57778 9.15555C6.4 9.51108 6.22222 9.77778 6.04444 10.1333H6.13333H6.22222C7.37778 9.68889 8.44444 9.42222 9.15555 9.33333C8.97774 9.24444 8.88889 9.15556 8.8 9.06667C8.35556 8.53333 7.82222 7.82222 7.46667 7.02222Z" fill="#0D0D0D"/>
</g>
<defs>
<clipPath id="clip0_862_10458">
<rect width="16" height="16" fill="white"/>
</clipPath>
</defs>
</svg>
