<svg width="20" height="20" viewBox="0 0 20 20" fill="" xmlns="http://www.w3.org/2000/svg">
<path d="M10 20C15.5231 20 20 15.5231 20 10C20 4.47752 15.5231 -1.90735e-06 10 -1.90735e-06C4.47686 -1.90735e-06 -1.90735e-06 4.47752 -1.90735e-06 10C-1.90735e-06 15.5231 4.47686 20 10 20ZM5.625 9.375H12.2412L9.66565 6.79938C9.42124 6.555 9.42124 6.15938 9.66565 5.91565C9.91003 5.67124 10.3056 5.67124 10.5494 5.91565L14.085 9.45124C14.2344 9.60062 14.2812 9.80624 14.2469 10C14.2813 10.1938 14.2344 10.3994 14.0844 10.5494L10.5488 14.085C10.3044 14.3294 9.90876 14.3294 9.665 14.085C9.42062 13.8406 9.42062 13.445 9.665 13.2012L12.2412 10.625H5.625C5.28 10.625 5 10.345 5 10C5 9.655 5.28 9.375 5.625 9.375Z" fill="#4D4D4D"/>
</svg>
