<svg width="16" height="16" viewBox="0 0 16 16" xmlns="http://www.w3.org/2000/svg">
<path d="M7.99995 15.7504C4.32495 15.7504 1.32495 12.7504 1.32495 9.07539C1.32495 8.80039 1.54995 8.57539 1.82495 8.57539C2.09995 8.57539 2.32495 8.80039 2.32495 9.07539C2.32495 12.2004 4.87495 14.7504 7.99995 14.7504C11.125 14.7504 13.675 12.2004 13.675 9.07539C13.675 5.95039 11.125 3.40039 7.99995 3.40039C7.72495 3.40039 7.49995 3.17539 7.49995 2.90039C7.49995 2.62539 7.72495 2.40039 7.99995 2.40039C11.675 2.40039 14.675 5.40039 14.675 9.07539C14.675 12.7504 11.675 15.7504 7.99995 15.7504Z" fill="#F5F5F5"/>
<path d="M9.00005 5.65C8.87505 5.65 8.75005 5.6 8.65005 5.5L6.45005 3.3C6.25005 3.1 6.25005 2.8 6.45005 2.6L8.65005 0.4C8.85005 0.2 9.15005 0.2 9.35005 0.4C9.55005 0.6 9.55005 0.9 9.35005 1.1L7.50005 2.95L9.35005 4.8C9.55005 5 9.55005 5.3 9.35005 5.5C9.27505 5.6 9.15005 5.65 9.00005 5.65Z" fill="#F5F5F5"/>
</svg>
