<svg width="24" height="24" viewBox="0 0 24 24" xmlns="http://www.w3.org/2000/svg">
<path fill-rule="evenodd" clip-rule="evenodd" d="M16.5656 19.7396C16.2532 20.0868 15.7467 20.0868 15.4343 19.7396L12.2343 16.1841C12.0055 15.9299 11.9371 15.5476 12.0609 15.2154C12.1847 14.8832 12.4765 14.6667 12.8 14.6667H14.8C15.0209 14.6667 15.2 14.4676 15.2 14.2222V4.88889C15.2 4.39797 15.5581 4 16 4C16.4418 4 16.8 4.39797 16.8 4.88889V14.2222C16.8 14.4676 16.9791 14.6667 17.2 14.6667H19.2C19.5236 14.6667 19.8152 14.8832 19.9391 15.2154C20.0629 15.5476 19.9944 15.9299 19.7656 16.1841L16.5656 19.7396ZM8.5657 4.26035C8.25328 3.91322 7.74675 3.91322 7.43433 4.26035L4.23434 7.8159C4.00554 8.07012 3.9371 8.45245 4.06092 8.7846C4.18474 9.11676 4.47646 9.33333 4.80002 9.33333H6.80002C7.02093 9.33333 7.20002 9.53232 7.20002 9.77778V19.1111C7.20002 19.602 7.55818 20 8.00001 20C8.44184 20 8.80001 19.602 8.80001 19.1111V9.77778C8.80001 9.53232 8.9791 9.33333 9.20001 9.33333H11.2C11.5236 9.33333 11.8153 9.11676 11.9391 8.7846C12.0629 8.45245 11.9945 8.07012 11.7657 7.8159L8.5657 4.26035Z"/>
</svg>
