<svg width="20" height="20" viewBox="0 0 20 20" fill="" xmlns="http://www.w3.org/2000/svg">
<g clip-path="url(#clip0_862_4645)">
<path d="M19.2954 11.5778C19.8921 6.55526 19.0087 3.38443 17.4154 1.95026L17.4162 1.94943C14.8446 -0.499735 6.15958 -0.862235 3.08291 2.05943C1.70124 3.4886 1.21458 5.5861 1.16124 8.18277C1.10791 10.7803 1.04458 15.6461 5.57874 16.9661H5.58291L5.57874 18.9819C5.57874 18.9819 5.54791 19.7986 6.06958 19.9628C6.66624 20.1561 6.93624 19.7769 8.79208 17.5603C11.8954 17.8294 14.2787 17.2128 14.5496 17.1228C15.1762 16.9128 18.7221 16.4436 19.2954 11.5778ZM9.09791 16.1419C9.09791 16.1419 7.13374 18.5911 6.52291 19.2269C6.32291 19.4336 6.10374 19.4144 6.10708 19.0044C6.10708 18.7353 6.12208 15.6578 6.12208 15.6578C2.27791 14.5561 2.50458 10.4128 2.54624 8.24527C2.58791 6.07693 2.98458 4.3011 4.15458 3.10526C6.85374 0.574431 14.4679 1.14026 16.4079 2.9636C18.7796 5.0661 17.9354 11.0061 17.9404 11.2086C17.4529 15.2703 14.5796 15.5278 14.0512 15.7036C13.8254 15.7786 11.7296 16.3178 9.09791 16.1419Z" fill="#F5F5F5"/>
<path d="M10.185 3.58105C9.86413 3.58105 9.86413 4.08105 10.185 4.08522C12.6741 4.10439 14.7241 5.83939 14.7466 9.02189C14.7466 9.35772 15.2383 9.35356 15.2341 9.01772C15.2075 5.58856 12.9683 3.60022 10.185 3.58105Z" fill="#F5F5F5"/>
<path d="M13.4594 8.4942C13.4519 8.82586 13.9428 8.8417 13.9469 8.50586C13.9878 6.61503 12.8219 5.05753 10.6311 4.89336C10.3103 4.87003 10.2769 5.3742 10.5969 5.39753C12.4969 5.5417 13.4978 6.83836 13.4594 8.4942Z" fill="#F5F5F5"/>
<path d="M12.9345 10.6448C12.5228 10.4064 12.1037 10.5548 11.9303 10.7889L11.5678 11.2581C11.3837 11.4964 11.0395 11.4648 11.0395 11.4648C8.52784 10.8006 7.85617 8.17226 7.85617 8.17226C7.85617 8.17226 7.82534 7.81643 8.05534 7.62559L8.50867 7.25059C8.73534 7.07059 8.87867 6.63726 8.64784 6.21143C8.03117 5.09726 7.61701 4.71309 7.40617 4.41809C7.18451 4.14059 6.85117 4.07809 6.50451 4.26559H6.49701C5.77617 4.68726 4.98701 5.47643 5.23951 6.28893C5.67034 7.14559 6.46201 9.87643 8.98534 11.9398C10.1712 12.9156 12.0478 13.9156 12.8445 14.1464L12.852 14.1581C13.637 14.4198 14.4003 13.5998 14.8078 12.8573V12.8514C14.9887 12.4923 14.9287 12.1523 14.6645 11.9298C14.1962 11.4731 13.4895 10.9689 12.9345 10.6448Z" fill="#F5F5F5"/>
<path d="M10.9741 6.75372C11.775 6.80039 12.1633 7.21872 12.205 8.07789C12.22 8.41372 12.7075 8.39039 12.6925 8.05456C12.6391 6.93289 12.0541 6.30789 11.0008 6.24956C10.68 6.23039 10.65 6.73456 10.9741 6.75372Z" fill="#F5F5F5"/>
</g>
<defs>
<clipPath id="clip0_862_4645">
<rect width="20" height="20" fill="white"/>
</clipPath>
</defs>
</svg>
