<svg width="456.675781" height="189.765625" viewBox="0 0 456.676 189.766" fill="#000" xmlns="http://www.w3.org/2000/svg" >
	<path id="404" d="M0.998847 151.568L0.998847 125.378L78.1473 3.48543L99.9868 3.48543L99.9868 40.7724L86.67 40.7724L34.7346 123.07L34.7346 124.49L142.423 124.49L142.423 151.568L0.998847 151.568ZM87.7354 185.304L87.7354 143.578L88.0905 131.859L88.0905 3.48543L119.163 3.48543L119.163 185.304L87.7354 185.304ZM227.993 188.766C213.374 188.766 200.827 185.067 190.351 177.669C179.934 170.211 171.914 159.469 166.292 145.442C160.728 131.356 157.947 114.399 157.947 94.5721C158.006 74.7449 160.817 57.877 166.381 43.9684C172.003 30.0006 180.023 19.3472 190.44 12.0082C200.915 4.66914 213.433 0.999634 227.993 0.999634C242.552 0.999634 255.07 4.66914 265.546 12.0082C276.022 19.3472 284.042 30.0006 289.605 43.9684C295.228 57.9362 298.039 74.8041 298.039 94.5721C298.039 114.458 295.228 131.445 289.605 145.531C284.042 159.558 276.022 170.27 265.546 177.669C255.129 185.067 242.612 188.766 227.993 188.766ZM227.993 160.978C239.356 160.978 248.323 155.385 254.893 144.199C261.521 132.954 264.836 116.412 264.836 94.5721C264.836 80.1308 263.327 67.9977 260.308 58.1729C257.29 48.3481 253.028 40.9499 247.524 35.9783C242.02 30.9476 235.509 28.4322 227.993 28.4322C216.688 28.4322 207.751 34.0548 201.182 45.3001C194.612 56.4861 191.298 72.9101 191.239 94.5721C191.179 109.073 192.629 121.265 195.589 131.149C198.607 141.033 202.869 148.49 208.373 153.521C213.877 158.493 220.417 160.978 227.993 160.978ZM314.251 151.568L314.251 125.378L391.399 3.48543L413.239 3.48543L413.239 40.7724L399.922 40.7724L347.987 123.07L347.987 124.49L455.675 124.49L455.675 151.568L314.251 151.568ZM400.987 185.304L400.987 143.578L401.342 131.859L401.342 3.48543L432.415 3.48543L432.415 185.304L400.987 185.304Z" stroke="#F5F5F5" stroke-opacity="1.000000" stroke-width="1.000000"/>
</svg>
