<svg width="36" height="34" viewBox="0 0 36 34" fill="none" xmlns="http://www.w3.org/2000/svg">
<path fill-rule="evenodd" clip-rule="evenodd" d="M27 0.6875C31.95 0.6875 36 4.7375 36 9.6875V19.8125C36 24.7625 31.95 28.8125 27 28.8125H10.4625C9.45 28.8125 8.55 29.15 7.7625 29.7125L3.6 32.8625C2.5875 33.65 1.2375 33.425 0.45 32.4125C0.1125 32.075 0 31.5125 0 31.0625V9.6875C0 4.7375 4.05 0.6875 9 0.6875H27ZM24.075 12.05C23.5125 11.825 22.8375 12.05 22.6125 12.6125C21.825 14.1875 20.025 15.3125 18 15.3125C15.975 15.3125 14.175 14.1875 13.3875 12.6125C13.1625 12.05 12.4875 11.825 11.925 12.05C11.3625 12.275 11.1375 12.95 11.3625 13.5125C12.4875 15.875 15.1875 17.5625 18 17.5625C20.8125 17.5625 23.5125 15.9875 24.6375 13.5125C24.8625 12.95 24.6375 12.275 24.075 12.05Z" fill="white"/>
</svg>
