<svg width="36" height="34" viewBox="0 0 36 34" fill="none" xmlns="http://www.w3.org/2000/svg">
<path fill-rule="evenodd" clip-rule="evenodd" d="M36 9.6875C36 4.7375 31.95 0.6875 27 0.6875H9C4.05 0.6875 0 4.7375 0 9.6875V31.0625C0 31.5125 0.1125 32.075 0.45 32.4125C1.2375 33.425 2.5875 33.65 3.6 32.8625L7.7625 29.7125C8.55 29.15 9.45 28.8125 10.4625 28.8125H27C31.95 28.8125 36 24.7625 36 19.8125V9.6875ZM15.1744 10H13L14.1329 20H16.3621L18.5 14.63L20.6744 20H22.8854L24 10H21.8256L21.2409 15.7875L19.5415 11.9165H17.4585L15.8688 15.7875L15.1744 10Z" fill="#F5F5F5"/>
</svg>
