<svg width="36" height="34" viewBox="0 0 36 34" fill="none" xmlns="http://www.w3.org/2000/svg">
<path fill-rule="evenodd" clip-rule="evenodd" d="M36 9.6875C36 4.7375 31.95 0.6875 27 0.6875H9C4.05 0.6875 0 4.7375 0 9.6875V31.0625C0 31.5125 0.1125 32.075 0.45 32.4125C1.2375 33.425 2.5875 33.65 3.6 32.8625L7.7625 29.7125C8.55 29.15 9.45 28.8125 10.4625 28.8125H27C31.95 28.8125 36 24.7625 36 19.8125V9.6875ZM16.9638 10L13 20H15.4466L16.3948 17.5522H20.5672L21.5345 20H24L20.0552 10H16.9638ZM19.7707 15.4269H17.1914L18.4431 12.2391L19.7707 15.4269Z" fill="#F5F5F5"/>
</svg>
