<svg width="32" height="32" viewBox="0 0 32 32" fill="none" xmlns="http://www.w3.org/2000/svg">
<rect width="32" height="32" rx="2" fill="#F5F5F5"/>
<path fill-rule="evenodd" clip-rule="evenodd" d="M17.5432 20.3788C17.5167 20.1307 17.6676 18.9092 17.6676 18.9092C17.6676 18.9092 17.9711 18.9598 18.2638 18.9921C18.5566 19.0243 19.0277 19.0499 19.0277 19.0499C19.0277 19.0499 18.7737 19.9664 18.9212 20.1756C19.2622 20.6592 21.1258 21.8533 21.5531 22.3326C21.7679 22.5457 21.9859 22.7524 22.2528 22.9386C22.4413 23.0985 23.05 23.1169 23.2101 23.2768C23.3171 23.3923 23.448 23.7289 23.3823 23.7898C23.3375 23.8313 22.4152 23.8515 22.2528 23.8224C22.0767 23.8224 21.8659 23.6532 21.8659 23.6532C21.8659 23.6532 21.7349 23.7898 21.5531 23.6931C21.2325 23.5338 21.2804 23.2052 21.0933 22.9386C20.9863 22.8322 19.4201 21.8048 18.4109 21.2369C17.5451 20.7497 17.5835 20.7567 17.5432 20.3788ZM11.3154 17.2167C11.1278 17.0503 10.4345 17.6423 10.2363 17.5996C10.0381 17.5569 10.2319 17.0679 10.0564 17.0977C9.81827 17.1381 9.75476 17.6939 9.54092 17.7371C9.19605 17.8663 9 17.3513 9 16.7364C9 16.1216 9.21925 15.4516 9.96602 15.0227C10.7128 14.5937 11.8186 14.4844 12.6767 14.7715C13.4909 14.3367 14.5622 13.0749 16.9482 13.0159C19.3341 12.9569 20.2275 14.1462 20.7346 13.8614C21.2418 13.5767 21.4134 12.9347 21.3031 12.4551C21.0917 11.5364 20.6818 11.0369 20.3537 10.2188C20.1478 9.70552 20.1365 9.02751 20.396 8.53029C20.5124 8.30944 20.7951 8.05183 21.2214 8.00433C21.6478 7.95682 21.76 8.31422 22.0584 8.41171C22.3568 8.50921 22.9945 8.56922 23.0444 8.79603C23.0942 9.02283 22.3289 9.20113 22.1555 9.18255C21.7491 9.13913 21.4928 9.41181 21.5148 9.89358C21.541 10.5062 21.6854 10.725 22.2516 11.5971C22.8177 12.4692 22.8126 13.9192 22.0895 14.9309C21.8615 15.2265 21.6187 15.4776 21.4578 15.8155C21.3282 16.0863 21.4578 15.5407 21.4578 16.6213C21.4578 17.7019 20.9118 18.222 20.1981 18.4504C19.2374 18.7578 18.4078 18.6429 17.5593 18.5431C16.3852 18.405 15.4665 18.4212 14.987 18.5431C14.5714 18.6491 13.2708 19.3812 13.1108 19.7218C13.0258 19.9057 12.5668 21.8198 12.4827 22.2402C12.4483 22.4132 12.4677 22.7577 12.3873 22.9112C12.2994 23.0815 11.2292 23.7547 10.8659 23.8929C10.6985 23.9568 10.3605 24.0384 10.3203 23.9799C10.0835 23.708 10.0844 23.6451 10.7725 23.1496C10.5321 22.6522 11.2256 22.5308 11.4295 22.2855C11.652 22.0188 12.0557 19.1142 12.1941 18.736C12.3325 18.3577 12.8727 18.2275 13.0917 17.891C12.9881 17.7717 12.8446 17.8354 12.4652 17.9414C12.1396 18.0328 11.4597 18.2746 11.3154 18.1537C11.1711 18.0328 11.5031 17.383 11.3154 17.2167Z" fill="#4D4D4D"/>
</svg>
