<svg width="32" height="32" viewBox="0 0 32 32" fill="none" xmlns="http://www.w3.org/2000/svg">
<rect width="32" height="32" rx="2" fill="#F5F5F5"/>
<g clip-path="url(#clip0_1495_3777)">
<path fill-rule="evenodd" clip-rule="evenodd" d="M20.8211 12.7362C20.8695 12.7208 20.9332 12.7517 20.9968 12.8365C20.9968 12.8365 20.9968 12.8365 23.8745 15.6792C24.0425 15.8489 24.0425 16.1059 23.8745 16.2318C23.8745 16.2318 23.8745 16.2318 20.9968 19.1182C20.9332 19.2031 20.8695 19.2236 20.8211 19.1979C20.7727 19.1722 20.7422 19.0977 20.7422 18.9897V12.9213C20.7422 12.8159 20.7727 12.7517 20.8211 12.7362Z" fill="#4D4D4D"/>
<path fill-rule="evenodd" clip-rule="evenodd" d="M15.8971 8H16.1008L16.2969 8.08225C16.2969 8.08225 16.2969 8.08225 19.2586 11.0535C19.3859 11.2231 19.3426 11.3516 19.1312 11.3516C19.1312 11.3516 19.1312 11.3516 17.9038 11.3516C17.6924 11.3516 17.5244 11.5213 17.5244 11.7346C17.5244 11.7346 17.5244 11.7346 17.5244 13.9399C17.5244 14.1533 17.3537 14.3229 17.0991 14.3229C17.0991 14.3229 17.0991 14.3229 14.9421 14.3229C14.7308 14.3229 14.5602 14.1533 14.5602 13.9399C14.5602 13.9399 14.5602 13.9399 14.5602 11.7346C14.5602 11.5213 14.3921 11.3516 14.1782 11.3516H12.8667C12.6553 11.3516 12.612 11.2231 12.7394 11.0535C12.7394 11.0535 12.7394 11.0535 15.7036 8.08225L15.8971 8Z" fill="#4D4D4D"/>
<path fill-rule="evenodd" clip-rule="evenodd" d="M11.2583 12.6725C11.3118 12.6982 11.3449 12.7727 11.3449 12.8807V19.075C11.3449 19.183 11.3118 19.2472 11.2583 19.2678C11.2074 19.2884 11.1335 19.2678 11.047 19.2035C11.047 19.2035 11.047 19.2035 8.12605 16.2323C7.95798 16.1064 7.95798 15.8493 8.12605 15.6797C8.12605 15.6797 8.12605 15.6797 11.047 12.7521C11.1335 12.6673 11.2074 12.6468 11.2583 12.6725Z" fill="#4D4D4D"/>
<path fill-rule="evenodd" clip-rule="evenodd" d="M14.9418 17.5488C14.9418 17.5488 14.9418 17.5488 17.0988 17.5488C17.3534 17.5488 17.524 17.7185 17.524 17.9318C17.524 17.9318 17.524 17.9318 17.524 20.2656C17.524 20.5201 17.6921 20.6897 17.9035 20.6897H19.0469C19.2582 20.6897 19.3423 20.8157 19.1742 20.9442C19.1742 20.9442 19.1742 20.9442 16.2966 23.8717C16.21 23.9565 16.1056 24.0002 15.9986 24.0002C15.8942 24.0002 15.7873 23.9565 15.7032 23.8717C15.7032 23.8717 15.7032 23.8717 12.8256 20.9442C12.655 20.8157 12.739 20.6897 12.9504 20.6897C12.9504 20.6897 12.9504 20.6897 14.1778 20.6897C14.3918 20.6897 14.5598 20.5201 14.5598 20.2656C14.5598 20.2656 14.5598 20.2656 14.5598 17.9318C14.5598 17.7185 14.7305 17.5488 14.9418 17.5488Z" fill="#4D4D4D"/>
</g>
<defs>
<clipPath id="clip0_1495_3777">
<rect width="16" height="16" fill="white" transform="translate(8 8)"/>
</clipPath>
</defs>
</svg>
