<svg width="32" height="32" viewBox="0 0 32 32" fill="none" xmlns="http://www.w3.org/2000/svg">
<rect width="32" height="32" rx="2" fill="#F5F5F5"/>
<g clip-path="url(#clip0_1495_3786)">
<path d="M22.425 15.1916C21.8375 14.9853 21.6542 14.8632 21.6542 14.64C21.6542 14.3916 21.8583 14.2442 22.2208 14.2442C22.5167 14.2442 22.8125 14.3284 23.0333 14.4168L23.1292 13.3389C22.8583 13.2632 22.5292 13.2042 22.1708 13.2042C20.9833 13.2042 20.2208 13.8863 20.2208 14.7874C20.2125 15.36 20.5917 15.9032 21.5833 16.2442C22.1417 16.4337 22.2875 16.5516 22.2875 16.7958C22.2875 17.0442 22.1 17.2 21.65 17.2C21.2125 17.2 20.6458 17.0021 20.3667 16.8337L20.1042 17.9116C20.4667 18.1095 21.0208 18.2484 21.6542 18.2484C23.0292 18.2484 23.7292 17.5874 23.7292 16.6821C23.7208 15.9705 23.3417 15.5074 22.425 15.1916ZM26.0292 17.0232C25.5792 17.0232 25.4417 16.7579 25.4417 16.1726V12L23.9833 12.3368V13.3095H23.4292L23.3292 14.4168H23.9875V16.3916C23.9875 17.0737 24.125 17.5368 24.4 17.8274C24.6333 18.0758 25.0333 18.2442 25.5125 18.2442C25.9333 18.2442 26.2833 18.1937 26.4792 18.1137L26.4708 16.9768C26.3625 16.9979 26.2167 17.0189 26.0292 17.0232ZM25.5583 14.4211H26.4708V13.3095H25.5583V14.4211ZM9.02083 15.8147C8.99167 15.0737 8.96667 14.1768 8.96667 13.28H8.9375C8.74167 14.0674 8.475 14.9474 8.22917 15.6674L7.45417 18.0758H6.33333L5.65417 15.6842C5.44583 14.96 5.22917 14.08 5.07917 13.2758H5.0625C5.025 14.1053 4.99583 15.0611 4.95 15.8316L4.8375 18.1726H3.5L3.90417 12.0042H5.82083L6.44167 14.0632C6.6375 14.7747 6.8375 15.5495 6.97917 16.2695H7.00833C7.1875 15.5579 7.40417 14.7368 7.6125 14.0547L8.29167 12.0042H10.1708L10.5208 18.1726H9.1125L9.02083 15.8147ZM16.9083 16.2105C16.9583 16.8337 17.5625 17.1284 18.2625 17.1284C18.7708 17.1284 19.1792 17.0611 19.5875 16.9305L19.7833 17.9495C19.2958 18.1474 18.7 18.2442 18.05 18.2442C16.425 18.2442 15.4958 17.2968 15.4958 15.7811C15.4958 14.5558 16.25 13.2 17.9125 13.2C19.4625 13.2 20.0458 14.4126 20.0458 15.6126C20.0458 15.8695 20.0167 16.0968 19.9958 16.2063L16.9083 16.2105ZM18.6625 15.1789C18.6625 14.8126 18.5042 14.2021 17.8208 14.2021C17.1958 14.2021 16.9417 14.7747 16.9042 15.1789H18.6625Z" fill="#4D4D4D"/>
<path d="M27.4906 12.009L28.499 13.8659L27.4906 15.7311H26.4698L27.4781 13.8659L26.4656 12.009H27.4906C27.4906 12.0048 27.4906 12.0048 27.4906 12.009ZM15.0115 20.0006H10.9115V18.9732H15.0115V20.0006ZM12.1156 16.2069C12.1656 16.8301 12.7698 17.1248 13.4698 17.1248C13.9781 17.1248 14.3865 17.0574 14.7948 16.9269L14.9906 17.9459C14.5031 18.1438 13.9073 18.2406 13.2573 18.2406C11.6323 18.2406 10.7031 17.2932 10.7031 15.7774C10.7031 14.5522 11.4573 13.1964 13.1198 13.1964C14.6698 13.1964 15.2531 14.409 15.2531 15.609C15.2531 15.8659 15.224 16.0932 15.2031 16.2027H12.1156V16.2069ZM13.8698 15.1753C13.8698 14.809 13.7115 14.1985 13.0281 14.1985C12.4031 14.1985 12.149 14.7711 12.1073 15.1753H13.8698Z" fill="#4D4D4D"/>
</g>
<defs>
<clipPath id="clip0_1495_3786">
<rect width="25" height="8" fill="white" transform="translate(3.5 12)"/>
</clipPath>
</defs>
</svg>
