<svg width="155" height="16" viewBox="0 0 155 16" fill="none" xmlns="http://www.w3.org/2000/svg">
<g clip-path="url(#clip0_1202_252)">
<path d="M151.92 0.146071C153.176 0.116874 154.286 1.22636 154.256 2.51104C154.286 3.76651 153.176 4.876 151.92 4.8468C150.664 4.876 149.554 3.76651 149.584 2.51104C149.554 1.22636 150.664 0.116874 151.92 0.146071ZM151.92 0.671619C150.956 0.642422 150.139 1.48914 150.139 2.48184C150.109 3.44534 150.956 4.29206 151.92 4.26286C152.884 4.29206 153.701 3.44534 153.701 2.48184C153.701 1.48914 152.884 0.671619 151.92 0.671619ZM151.073 1.31395H152.066C152.592 1.31395 152.884 1.57673 152.884 1.95629C152.884 2.27746 152.679 2.51103 152.417 2.56943C152.709 2.56943 152.825 2.65702 152.825 2.91979V3.64972H152.241V3.03658C152.241 2.8614 152.183 2.80301 151.978 2.80301H151.599V3.64972H151.015V1.31395H151.073ZM151.978 2.33585C152.183 2.33585 152.3 2.24826 152.3 2.04388C152.3 1.8687 152.183 1.78111 151.949 1.78111H151.628V2.33585H151.978Z" fill="#F5F5F5"/>
<path d="M0 15.6789L6.10367 0.291992H10.864L16.9384 15.6789H13.1419L11.6525 11.9124H5.22755L3.76734 15.6789H0ZM6.45412 8.64236H10.4259L8.3816 3.73725L6.45412 8.64236Z" fill="#F5F5F5"/>
<path d="M19.5376 0.291992H27.0139C28.5617 0.291992 29.9343 0.642357 31.1024 1.34309C32.2706 2.04382 33.1759 2.97812 33.8184 4.14601C34.4609 5.31389 34.753 6.59856 34.753 7.97082C34.753 9.34309 34.4317 10.6278 33.8184 11.7956C33.1759 12.9635 32.2706 13.927 31.1024 14.6278C29.9343 15.3285 28.5617 15.6789 27.0139 15.6789H19.5376V0.291992ZM27.0139 12.4088C27.8316 12.4088 28.5617 12.2044 29.175 11.7956C29.7883 11.3869 30.2555 10.8613 30.5768 10.1606C30.898 9.48907 31.0732 8.75915 31.0732 7.97082C31.0732 7.2117 30.898 6.48177 30.5768 5.81024C30.2555 5.13871 29.7883 4.58396 29.175 4.1752C28.5617 3.76644 27.8316 3.56207 27.0139 3.56207H23.1005V12.3796H27.0139V12.4088Z" fill="#F5F5F5"/>
<path d="M35.8043 15.6789L41.908 0.291992H46.6683L52.7427 15.6789H48.917L47.4276 11.9124H41.0027L39.5425 15.6789H35.8043ZM42.2584 8.64236H46.2302L44.1859 3.73725L42.2584 8.64236Z" fill="#F5F5F5"/>
<path d="M55.3419 15.6789V0.291992H65.943C66.936 0.291992 67.7537 0.496372 68.4546 0.934328C69.1555 1.37228 69.6812 1.92703 70.0316 2.65696C70.3821 3.38688 70.5573 4.1752 70.5573 5.02192C70.5573 5.86864 70.3821 6.62776 70.0316 7.32849C69.6812 8.02922 69.1555 8.58396 68.4254 8.99272C67.7245 9.40148 66.9068 9.60586 65.943 9.60586H58.9048V15.6789H55.3419ZM58.9048 6.33579H65.943C66.2643 6.33579 66.5271 6.219 66.7023 6.01462C66.8776 5.81024 66.9944 5.51827 66.9944 5.1679V4.75915C66.9944 4.40878 66.9068 4.11681 66.7023 3.91243C66.5271 3.70805 66.2643 3.59126 65.943 3.59126H58.9048V6.33579Z" fill="#F5F5F5"/>
<path d="M72.6016 0.291992H76.0769L77.1866 9.1971L79.7274 3.2409H83.0567L85.7726 9.1971L86.7072 0.291992H90.1825L88.401 15.6789H84.8673L81.392 7.41608L77.9751 15.6789H74.4122L72.6016 0.291992Z" fill="#F5F5F5"/>
<path d="M92.4896 7.9708C92.4896 6.56934 92.8109 5.28467 93.4242 4.05839C94.0374 2.83212 94.9428 1.86861 96.1109 1.10949C97.2791 0.350365 98.6809 0 100.229 0C101.806 0 103.178 0.379562 104.347 1.10949C105.515 1.86861 106.42 2.83212 107.033 4.05839C107.647 5.28467 107.968 6.56934 107.968 7.9708C107.968 9.37226 107.647 10.6569 107.033 11.8832C106.42 13.1095 105.515 14.1022 104.347 14.8321C103.178 15.5912 101.777 15.9416 100.229 15.9416C98.6517 15.9416 97.2791 15.562 96.1109 14.8321C94.9428 14.073 94.0374 13.1095 93.4242 11.8832C92.8109 10.6861 92.4896 9.37226 92.4896 7.9708ZM104.317 7.9708C104.317 7.18248 104.171 6.45255 103.85 5.75182C103.529 5.0511 103.062 4.49635 102.448 4.05839C101.835 3.62044 101.105 3.41606 100.258 3.41606C99.411 3.41606 98.6809 3.62044 98.0676 4.05839C97.4543 4.49635 96.9871 5.0511 96.6658 5.75182C96.3446 6.45255 96.1985 7.18248 96.1985 7.9708C96.1985 8.75912 96.3446 9.51825 96.6658 10.219C96.9871 10.9197 97.4543 11.4745 98.0676 11.8832C98.6809 12.292 99.411 12.5255 100.258 12.5255C101.105 12.5255 101.835 12.3212 102.448 11.8832C103.062 11.4745 103.529 10.8905 103.85 10.219C104.142 9.51825 104.317 8.78832 104.317 7.9708Z" fill="#F5F5F5"/>
<path d="M111.297 15.6789V0.291992H121.898C122.891 0.291992 123.709 0.496372 124.41 0.934328C125.111 1.37228 125.636 1.92703 125.987 2.65696C126.337 3.38688 126.512 4.1752 126.512 5.02192C126.512 6.10221 126.22 7.06572 125.607 7.91243C124.994 8.75915 124.147 9.28469 123.037 9.48907C123.066 9.54747 123.096 9.57666 123.154 9.63506C123.183 9.69345 123.242 9.75185 123.271 9.81024L126.775 15.6497H122.774L119.153 9.60586H114.86V15.6789H111.297ZM114.86 6.33579H121.898C122.219 6.33579 122.482 6.219 122.658 6.01462C122.833 5.81024 122.95 5.51827 122.95 5.1679V4.75915C122.95 4.40878 122.862 4.11681 122.658 3.91243C122.453 3.70805 122.219 3.59126 121.898 3.59126H114.86V6.33579Z" fill="#F5F5F5"/>
<path d="M130.075 0.291992H133.638V6.94893L140.764 0.291992H145.787L138.778 6.80294L145.641 15.6789H141.319L136.296 9.13871L133.638 11.6205V15.6789H130.075V0.291992Z" fill="#F5F5F5"/>
</g>
<defs>
<clipPath id="clip0_1202_252">
<rect width="154.256" height="16" fill="white"/>
</clipPath>
</defs>
</svg>
